<?xml version="1.0" standalone="no"?>
<!DOCTYPE svg PUBLIC "-//W3C//DTD SVG 20010904//EN"
 "http://www.w3.org/TR/2001/REC-SVG-20010904/DTD/svg10.dtd">
<svg version="1.0" xmlns="http://www.w3.org/2000/svg"
 width="1080.000000pt" height="1080.000000pt" viewBox="0 0 1080.000000 1080.000000"
 preserveAspectRatio="xMidYMid meet">
<metadata>
Created by potrace 1.14, written by Peter Selinger 2001-2017
</metadata>
<g transform="translate(0.000000,1080.000000) scale(0.100000,-0.100000)"
fill="#000000" stroke="none">
<path d="M5055 10789 c-517 -33 -1065 -154 -1570 -344 -572 -216 -1124 -546
-1605 -959 -136 -116 -407 -388 -541 -541 -911 -1046 -1384 -2405 -1319 -3791
44 -950 321 -1832 828 -2639 394 -628 952 -1199 1570 -1608 805 -533 1679
-828 2662 -898 181 -13 633 -7 810 11 534 54 1041 175 1509 362 1760 702 3017
2263 3330 4133 56 335 66 472 66 885 0 413 -10 550 -66 885 -126 752 -399
1449 -813 2080 -1068 1624 -2922 2548 -4861 2424z m477 -112 c57 -46 562 -451
1123 -901 561 -451 1029 -828 1040 -838 11 -11 -41 17 -115 62 -261 158 -618
321 -895 410 -470 150 -1005 218 -1494 191 -613 -34 -1131 -168 -1658 -431
-586 -291 -1065 -681 -1467 -1195 -87 -110 -262 -372 -320 -477 -21 -38 -39
-68 -41 -68 -2 0 32 91 74 203 42 111 264 691 492 1289 l414 1087 145 80 c726
400 1551 631 2365 660 110 5 208 9 217 9 10 1 64 -35 120 -81z m453 48 c1112
-129 2097 -558 2935 -1279 137 -118 432 -413 546 -546 430 -500 749 -1044 974
-1655 75 -205 188 -581 177 -591 -4 -4 -5055 4051 -5087 4083 -13 14 3 15 155
9 94 -3 229 -13 300 -21z m-3368 -772 c-3 -5 -526 -1374 -1162 -3043 -636
-1669 -1160 -3039 -1164 -3043 -9 -9 -76 239 -116 423 -169 787 -150 1670 51
2440 251 955 731 1792 1421 2471 264 261 506 459 799 655 142 94 184 118 171
97z m3248 -417 c496 -59 948 -193 1395 -414 l175 -87 -1018 -3 c-559 -1 -1475
-1 -2035 0 l-1017 3 175 87 c508 251 1032 392 1600 432 122 8 601 -4 725 -18z
m-571 -564 c-5 -5 -673 -388 -1484 -852 -811 -463 -1478 -844 -1482 -847 -9
-5 -8 -3 567 985 l420 722 994 0 c547 0 991 -4 985 -8z m2596 -689 c584 -1003
590 -1014 582 -1010 -4 3 -671 384 -1482 847 -811 464 -1479 847 -1484 852 -6
4 438 8 985 8 l994 0 405 -697z m-5636 -1030 c-543 -934 -996 -1711 -1007
-1728 l-19 -30 7 115 c49 901 386 1759 960 2450 168 202 430 454 654 630 101
79 383 271 390 265 2 -2 -441 -768 -985 -1702z m5546 1549 c248 -174 534 -432
739 -667 562 -643 910 -1434 1005 -2280 17 -149 31 -362 23 -355 -7 8 -1998
3430 -2004 3447 -6 15 112 -57 237 -145z m-888 -1589 c828 -956 1517 -1752
1532 -1769 l26 -32 -1506 -1738 c-828 -957 -1520 -1753 -1537 -1770 l-32 -32
-1529 1767 c-841 971 -1530 1769 -1530 1774 -1 10 3054 3537 3064 3537 4 0
684 -782 1512 -1737z m-1634 1680 c-27 -32 -2961 -3418 -2964 -3422 -2 -2 -4
387 -4 866 l0 869 1488 852 c818 468 1489 851 1491 851 2 1 -3 -7 -11 -16z
m1745 -848 l1467 -839 0 -870 c0 -478 -4 -866 -8 -861 -28 32 -2948 3404
-2961 3420 -16 19 -15 19 9 4 14 -8 685 -393 1493 -854z m2998 -975 l617 -495
21 -95 c28 -130 56 -308 75 -475 118 -1050 -69 -2088 -546 -3027 -816 -1608
-2381 -2694 -4178 -2899 -336 -38 -847 -40 -1160 -4 -1255 144 -2371 680
-3236 1557 -505 511 -862 1046 -1142 1709 -59 139 -153 398 -155 428 -1 24
953 2544 961 2537 1 -2 -6 -48 -17 -102 -55 -273 -75 -489 -75 -814 0 -323 19
-535 75 -815 146 -734 487 -1422 980 -1980 247 -279 522 -518 829 -720 194
-127 296 -185 503 -285 811 -392 1711 -511 2613 -345 735 136 1456 491 2019
996 288 258 502 505 710 819 218 331 375 656 498 1035 142 436 201 816 201
1295 0 324 -20 537 -75 815 -160 803 -543 1533 -1113 2124 -97 100 -69 78
1595 -1259z m-7753 -2557 l-3 -888 -513 881 c-281 485 -512 887 -512 894 0 7
231 409 513 894 l512 881 3 -888 c1 -488 1 -1286 0 -1774z m6787 1769 c301
-519 505 -880 503 -890 -5 -18 -1004 -1740 -1019 -1757 -5 -5 -9 759 -9 1765
0 1010 4 1770 9 1765 5 -6 237 -403 516 -883z m-5270 -2622 c802 -927 1472
-1700 1489 -1718 21 -23 -235 119 -819 453 -467 268 -1141 654 -1497 858
l-648 371 0 870 c0 478 4 866 8 861 5 -6 665 -768 1467 -1695z m4705 832 l0
-868 -647 -371 c-357 -204 -1029 -589 -1495 -856 l-848 -485 138 158 c75 87
747 863 1492 1724 745 861 1356 1565 1358 1566 1 0 2 -391 2 -868z m-6241
-936 c556 -956 1010 -1740 1008 -1742 -6 -7 -307 197 -407 275 -283 222 -564
505 -770 776 -408 536 -682 1172 -794 1840 -31 182 -69 610 -54 595 3 -3 461
-787 1017 -1744z m7317 1622 c-42 -753 -272 -1453 -680 -2078 -244 -372 -568
-723 -933 -1009 -100 -78 -404 -284 -410 -277 -4 4 2019 3486 2026 3486 2 0 1
-55 -3 -122z m-5751 -2473 c814 -466 1494 -855 1510 -866 30 -18 14 -19 -990
-19 l-1020 0 -385 662 c-212 364 -442 760 -511 880 -81 138 -119 212 -105 204
11 -8 687 -395 1501 -861z m4653 807 c-18 -33 -247 -426 -508 -875 l-475 -817
-1019 0 c-561 0 -1017 2 -1015 5 6 5 3043 1745 3047 1745 2 0 -12 -26 -30 -58z
m-1012 -1750 c-10 -17 -373 -191 -512 -246 -360 -142 -655 -216 -1084 -272
-193 -26 -727 -26 -920 0 -436 57 -752 137 -1108 282 -140 57 -478 220 -488
235 -3 5 860 9 2056 9 1134 0 2059 -4 2056 -8z"/>
<path d="M5155 7005 c-357 -57 -682 -226 -922 -478 -218 -230 -357 -493 -423
-802 -28 -128 -38 -397 -20 -528 87 -662 564 -1204 1203 -1368 258 -66 556
-66 814 0 425 109 785 387 1006 776 99 173 167 379 198 593 17 123 6 401 -21
527 -145 678 -672 1176 -1355 1281 -110 17 -371 16 -480 -1z"/>
</g>
</svg>
